<?xml version="1.0" encoding="UTF-8"?>
<svg version="1.1" xmlns="http://www.w3.org/2000/svg" width="128" height="128">
<path d="M0 0 C22.11 0 44.22 0 67 0 C67 22.11 67 44.22 67 67 C66.34 67 65.68 67 65 67 C65.00888245 67.55043976 65.01776489 68.10087952 65.0269165 68.66799927 C65.11559291 74.41072172 65.17581803 80.15324883 65.21972656 85.89648438 C65.23980888 88.03816634 65.26708037 90.1797937 65.30175781 92.32128906 C65.35042398 95.40443415 65.3730029 98.48685262 65.390625 101.5703125 C65.41127014 102.52366486 65.43191528 103.47701721 65.45318604 104.45925903 C65.45508705 110.12523145 64.95591831 113.60405304 61 118 C56.30777154 121.35850137 50.07818698 120.3281429 44.5625 120.3125 C43.43005859 120.32861328 42.29761719 120.34472656 41.13085938 120.36132812 C40.03708984 120.36197266 38.94332031 120.36261719 37.81640625 120.36328125 C36.82068604 120.36626221 35.82496582 120.36924316 34.79907227 120.37231445 C30.63375169 119.8182705 28.12719857 118.15300992 25.21948242 115.17871094 C23.65552453 112.38456474 23.5697524 110.33429415 23.48828125 107.140625 C23.45283203 106.02558594 23.41738281 104.91054687 23.38085938 103.76171875 C23.35830078 102.60285156 23.33574219 101.44398437 23.3125 100.25 C23.27833984 99.07566406 23.24417969 97.90132813 23.20898438 96.69140625 C23.12654827 93.79436611 23.05738189 90.89762702 23 88 C22.54729736 88.73319458 22.54729736 88.73319458 22.08544922 89.48120117 C20.69258472 91.72343158 19.28399534 93.95537397 17.875 96.1875 C17.400625 96.95642578 16.92625 97.72535156 16.4375 98.51757812 C9.71680766 109.09812755 9.71680766 109.09812755 3.875 110.515625 C-0.85002877 109.84624592 -3.36792373 108.38207979 -6.34765625 104.453125 C-9.99965345 99.03124736 -13.53885981 93.54551572 -17 88 C-17.00410889 88.72590332 -17.00821777 89.45180664 -17.01245117 90.19970703 C-17.0454749 93.50894916 -17.11613026 96.81637184 -17.1875 100.125 C-17.19330078 101.26710938 -17.19910156 102.40921875 -17.20507812 103.5859375 C-17.45378193 113.0919495 -17.45378193 113.0919495 -20.36328125 116.7421875 C-25.52197996 121.1595621 -31.34413882 120.21947086 -37.8125 120.25 C-38.89337891 120.270625 -39.97425781 120.29125 -41.08789062 120.3125 C-51.24708651 120.36239169 -51.24708651 120.36239169 -56 117 C-58.03916627 113.9412506 -58.25215792 113.32073894 -58.27415466 109.87649536 C-58.28412979 109.03818176 -58.29410492 108.19986816 -58.30438232 107.33615112 C-58.305047 106.41971832 -58.30571167 105.50328552 -58.30639648 104.55908203 C-58.31472 103.59131836 -58.32304352 102.62355469 -58.33161926 101.62646484 C-58.35575843 98.42020674 -58.36449609 95.2141519 -58.37109375 92.0078125 C-58.38005689 89.78205299 -58.38917867 87.55629412 -58.39845276 85.33053589 C-58.41495582 80.66158584 -58.42264531 75.99270761 -58.42553711 71.32373047 C-58.43092309 65.33898647 -58.46860705 59.35491673 -58.51428127 53.37036324 C-58.54401307 48.77214081 -58.55125983 44.17408153 -58.55226326 39.57577133 C-58.55647303 37.36933172 -58.56893746 35.16289196 -58.58978081 32.95654678 C-58.61661473 29.87042812 -58.6118931 26.7858825 -58.59936523 23.69970703 C-58.61419952 22.78732269 -58.62903381 21.87493835 -58.64431763 20.93490601 C-58.59267207 16.4707478 -58.45786943 14.59304477 -55.65003967 10.95626831 C-50.54180027 7.18534859 -45.4149959 7.74721131 -39.3125 7.6875 C-37.8594043 7.64399414 -37.8594043 7.64399414 -36.37695312 7.59960938 C-30.08252235 7.54428307 -25.12278913 8.13110759 -20 12 C-18.05395678 13.97842668 -16.55832154 16.10631565 -15.0625 18.4375 C-14.51432617 19.24864258 -14.51432617 19.24864258 -13.95507812 20.07617188 C-12.62631997 22.04379872 -11.31402894 24.02250624 -10 26 C-7.03 30.29 -4.06 34.58 -1 39 C-0.67 26.13 -0.34 13.26 0 0 Z " fill="#DC8068" transform="translate(61,0)"/>
<path d="M0 0 C22.11 0 44.22 0 67 0 C67 22.11 67 44.22 67 67 C34.33 66.505 34.33 66.505 1 66 C0.35191912 50.44605882 -0.1341849 35.04483921 -0.0625 19.5 C-0.041875 13.065 -0.02125 6.63 0 0 Z " fill="#FF0202" transform="translate(61,0)"/>
<path d="M0 0 C1.4530957 -0.04350586 1.4530957 -0.04350586 2.93554688 -0.08789062 C9.23001212 -0.14321723 14.18831696 0.44582158 19.3125 4.3125 C21.20934647 6.45848451 22.67200408 8.31471723 24.1875 10.6875 C25.02437225 11.94512291 25.86296632 13.20160146 26.703125 14.45703125 C27.12658203 15.09721191 27.55003906 15.73739258 27.98632812 16.39697266 C29.30536378 18.30219242 30.70725073 20.09170943 32.171875 21.88671875 C37.68662169 28.76194847 40.42977401 33.79427679 39.6640625 42.9609375 C39.54804687 43.73695312 39.43203125 44.51296875 39.3125 45.3125 C35.25372289 41.5160496 32.1982743 37.49161433 29.125 32.875 C28.16645371 31.45759618 27.20679313 30.04094537 26.24609375 28.625 C25.76253418 27.91085938 25.27897461 27.19671875 24.78076172 26.4609375 C22.46120537 23.06684107 20.07995131 19.7179551 17.6875 16.375 C17.26186768 15.77824463 16.83623535 15.18148926 16.39770508 14.56665039 C14.49628842 11.82367363 14.49628842 11.82367363 12.3125 9.3125 C4.7225 9.3125 -2.8675 9.3125 -10.6875 9.3125 C-10.6875 40.3325 -10.6875 71.3525 -10.6875 103.3125 C-3.0975 103.3125 4.4925 103.3125 12.3125 103.3125 C13.86908482 101.75591518 13.47559399 100.23382264 13.51782227 98.06811523 C13.53776749 97.16725693 13.55771271 96.26639862 13.57826233 95.33824158 C13.59497482 94.35908279 13.61168732 93.37992401 13.62890625 92.37109375 C13.64968735 91.37368668 13.67046844 90.3762796 13.69187927 89.34864807 C13.75748637 86.14917157 13.81631134 82.94961018 13.875 79.75 C13.91817462 77.58657961 13.96178855 75.42316794 14.00585938 73.25976562 C14.11317903 67.94410126 14.21492427 62.62835166 14.3125 57.3125 C18.11294556 58.07363892 18.11294556 58.07363892 19.90893555 60.22338867 C20.417229 61.0507251 20.92552246 61.87806152 21.44921875 62.73046875 C22.30942627 64.10887939 22.30942627 64.10887939 23.18701172 65.51513672 C23.78529785 66.5001416 24.38358398 67.48514648 25 68.5 C26.2458265 70.50667636 27.49192058 72.51318662 28.73828125 74.51953125 C29.34494629 75.50518066 29.95161133 76.49083008 30.57666016 77.50634766 C32.90084048 81.26360907 35.28630045 84.97917383 37.6875 88.6875 C38.39648438 89.78835937 39.10546875 90.88921875 39.8359375 92.0234375 C40.32320312 92.77882813 40.81046875 93.53421875 41.3125 94.3125 C44.7714485 93.15951717 45.05446271 92.58212167 46.87890625 89.5859375 C47.35972656 88.80774658 47.84054688 88.02955566 48.3359375 87.2277832 C48.84382813 86.38948975 49.35171875 85.55119629 49.875 84.6875 C50.94811007 82.95894664 52.02234567 81.23109156 53.09765625 79.50390625 C53.63535645 78.63523926 54.17305664 77.76657227 54.72705078 76.87158203 C57.06110765 73.1041684 59.41196426 69.35042659 61.8125 65.625 C62.20896729 64.9841748 62.60543457 64.34334961 63.01391602 63.68310547 C64.15625 61.92578125 64.15625 61.92578125 66.3125 59.3125 C67.6325 59.3125 68.9525 59.3125 70.3125 59.3125 C70.33755615 60.60986084 70.3626123 61.90722168 70.38842773 63.24389648 C70.48231752 68.03908856 70.58258249 72.8341295 70.68481445 77.62915039 C70.72823334 79.70789057 70.76990312 81.78666803 70.80981445 83.86547852 C70.86734921 86.84663145 70.93109119 89.82759549 70.99609375 92.80859375 C71.01280624 93.74400497 71.02951874 94.6794162 71.04673767 95.64317322 C71.0766555 96.93439842 71.0766555 96.93439842 71.10717773 98.25170898 C71.13049416 99.39421364 71.13049416 99.39421364 71.15428162 100.55979919 C71.12629329 102.33985006 71.12629329 102.33985006 72.3125 103.3125 C74.16619611 103.39987645 76.02317541 103.41948153 77.87890625 103.41015625 C78.89154541 103.40765869 79.90418457 103.40516113 80.94750977 103.40258789 C82.89161743 103.38893188 82.89161743 103.38893188 84.875 103.375 C91.0315625 103.3440625 91.0315625 103.3440625 97.3125 103.3125 C97.3125 88.7925 97.3125 74.2725 97.3125 59.3125 C99.6225 59.3125 101.9325 59.3125 104.3125 59.3125 C104.41414192 65.6111875 104.48406661 71.90966253 104.53222656 78.20898438 C104.55230888 80.35066634 104.57958037 82.4922937 104.61425781 84.63378906 C104.66292398 87.71693415 104.6855029 90.79935262 104.703125 93.8828125 C104.72377014 94.83616486 104.74441528 95.78951721 104.76568604 96.77175903 C104.76758705 102.43773145 104.26841831 105.91655304 100.3125 110.3125 C95.62027154 113.67100137 89.39068698 112.6406429 83.875 112.625 C82.74255859 112.64111328 81.61011719 112.65722656 80.44335938 112.67382812 C79.34958984 112.67447266 78.25582031 112.67511719 77.12890625 112.67578125 C76.13318604 112.67876221 75.13746582 112.68174316 74.11157227 112.68481445 C69.94625169 112.1307705 67.43969857 110.46550992 64.53198242 107.49121094 C62.96802453 104.69706474 62.8822524 102.64679415 62.80078125 99.453125 C62.76533203 98.33808594 62.72988281 97.22304687 62.69335938 96.07421875 C62.67080078 94.91535156 62.64824219 93.75648437 62.625 92.5625 C62.59083984 91.38816406 62.55667969 90.21382813 62.52148438 89.00390625 C62.43904827 86.10686611 62.36988189 83.21012702 62.3125 80.3125 C61.85979736 81.04569458 61.85979736 81.04569458 61.39794922 81.79370117 C60.00508472 84.03593158 58.59649534 86.26787397 57.1875 88.5 C56.713125 89.26892578 56.23875 90.03785156 55.75 90.83007812 C49.02930766 101.41062755 49.02930766 101.41062755 43.1875 102.828125 C38.46247123 102.15874592 35.94457627 100.69457979 32.96484375 96.765625 C29.31284655 91.34374736 25.77364019 85.85801572 22.3125 80.3125 C22.30839111 81.03840332 22.30428223 81.76430664 22.30004883 82.51220703 C22.2670251 85.82144916 22.19636974 89.12887184 22.125 92.4375 C22.11919922 93.57960938 22.11339844 94.72171875 22.10742188 95.8984375 C21.85871807 105.4044495 21.85871807 105.4044495 18.94921875 109.0546875 C13.79052004 113.4720621 7.96836118 112.53197086 1.5 112.5625 C0.41912109 112.583125 -0.66175781 112.60375 -1.77539062 112.625 C-11.93458651 112.67489169 -11.93458651 112.67489169 -16.6875 109.3125 C-18.72666627 106.2537506 -18.93965792 105.63323894 -18.96165466 102.18899536 C-18.97162979 101.35068176 -18.98160492 100.51236816 -18.99188232 99.64865112 C-18.992547 98.73221832 -18.99321167 97.81578552 -18.99389648 96.87158203 C-19.00222 95.90381836 -19.01054352 94.93605469 -19.01911926 93.93896484 C-19.04325843 90.73270674 -19.05199609 87.5266519 -19.05859375 84.3203125 C-19.06755689 82.09455299 -19.07667867 79.86879412 -19.08595276 77.64303589 C-19.10245582 72.97408584 -19.11014531 68.30520761 -19.11303711 63.63623047 C-19.11842309 57.65148647 -19.15610705 51.66741673 -19.20178127 45.68286324 C-19.23151307 41.08464081 -19.23875983 36.48658153 -19.23976326 31.88827133 C-19.24397303 29.68183172 -19.25643746 27.47539196 -19.27728081 25.26904678 C-19.30411473 22.18292812 -19.2993931 19.0983825 -19.28686523 16.01220703 C-19.30169952 15.09982269 -19.31653381 14.18743835 -19.33181763 13.24740601 C-19.28017207 8.7832478 -19.14536943 6.90554477 -16.33753967 3.26876831 C-11.22930027 -0.50215141 -6.1024959 0.05971131 0 0 Z " fill="#FDFCFC" transform="translate(21.6875,7.6875)"/>
<path d="M0 0 C21 0 21 0 25.8125 4.25 C26.93224061 6.13379891 27.99431064 8.05292366 29 10 C30.23240441 11.86590819 31.48325623 13.7197319 32.75 15.5625 C33.39453125 16.56023438 34.0390625 17.55796875 34.703125 18.5859375 C36.42888648 21.21230128 38.27438661 23.72165326 40.171875 26.2265625 C40.72133789 26.96447021 41.27080078 27.70237793 41.83691406 28.46264648 C42.92074669 29.91258288 44.02102304 31.3504157 45.13964844 32.77368164 C49.03965217 38.04672275 49.5641062 41.4679066 49 48 C44.38 48 39.76 48 35 48 C35 50.31 35 52.62 35 55 C32.83681709 53.05313538 31.62957812 51.3702828 30.125 48.8125 C29.42375 47.884375 28.7225 46.95625 28 46 C25.3295947 45.49758678 25.3295947 45.49758678 23 46 C22.67 46.66 22.34 47.32 22 48 C14.74 48 7.48 48 0 48 C0 32.16 0 16.32 0 0 Z " fill="#EE629F" transform="translate(12,18)"/>
<path d="M0 0 C3.95460576 2.96595432 6.99427901 5.2496484 7.94921875 10.20703125 C8.37698106 19.80955754 4.09759695 25.60582187 -2.109375 32.50390625 C-5.42087474 35.78835126 -8.98992473 38.80368414 -12.5 41.875 C-5.24 42.205 2.02 42.535 9.5 42.875 C9.5 46.175 9.5 49.475 9.5 52.875 C-3.04 52.875 -15.58 52.875 -28.5 52.875 C-28.5 44.875 -28.5 44.875 -26.94287109 42.45727539 C-26.22695801 41.80235107 -25.51104492 41.14742676 -24.7734375 40.47265625 C-23.98839844 39.72693359 -23.20335938 38.98121094 -22.39453125 38.21289062 C-21.56308594 37.46201172 -20.73164062 36.71113281 -19.875 35.9375 C-9.43925669 26.78226291 -9.43925669 26.78226291 -3.9375 14.5 C-4.34615781 11.90232477 -4.34615781 11.90232477 -5.625 10 C-8.53585787 8.25348528 -10.12269278 8.37465819 -13.5 8.875 C-16.64925056 10.35700026 -19.5144886 12.06559915 -22.5 13.875 C-24.48 11.235 -26.46 8.595 -28.5 5.875 C-27.06542672 4.8915504 -25.62722594 3.91339079 -24.1875 2.9375 C-23.38699219 2.39222656 -22.58648437 1.84695312 -21.76171875 1.28515625 C-15.54199501 -2.59277168 -6.79267366 -2.18335939 0 0 Z " fill="#FFF7F7" transform="translate(104.5,6.125)"/>
<path d="M0 0 C7.26 0 14.52 0 22 0 C22 14.52 22 29.04 22 44 C14.74 44 7.48 44 0 44 C0 29.48 0 14.96 0 0 Z " fill="#9B82BB" transform="translate(12,66)"/>
<path d="M0 0 C12.6858203 -0.20100772 25.33105335 0.41292532 38 1 C36.80339537 4.17290355 35.50937179 6.98954601 33.64453125 9.8203125 C33.19005615 10.51584229 32.73558105 11.21137207 32.26733398 11.92797852 C31.54719116 13.01550415 31.54719116 13.01550415 30.8125 14.125 C29.81975396 15.63635201 28.82756713 17.1480715 27.8359375 18.66015625 C27.3522168 19.39637207 26.86849609 20.13258789 26.37011719 20.89111328 C25.15174555 22.76643299 23.96137705 24.65426801 22.7890625 26.55859375 C22.17804688 27.54988281 21.56703125 28.54117188 20.9375 29.5625 C20.41027344 30.43003906 19.88304688 31.29757813 19.33984375 32.19140625 C18.89769531 32.78824219 18.45554687 33.38507813 18 34 C17.34 34 16.68 34 16 34 C14.41186523 31.82861328 14.41186523 31.82861328 12.55859375 28.8203125 C11.55989258 27.20962891 11.55989258 27.20962891 10.54101562 25.56640625 C9.83976366 24.41931979 9.13859272 23.2721838 8.4375 22.125 C7.73306146 20.98528152 7.02799111 19.84595329 6.32226562 18.70703125 C1.96815208 11.65429641 -0.13263431 8.22332693 0 0 Z " fill="#ADDCDF" transform="translate(47,66)"/>
<path d="M0 0 C7.81011285 0.19907655 7.81011285 0.19907655 11.63378906 2.38476562 C13.71557558 5.03471563 15.17085953 7.72072807 16.71582031 10.71679688 C18.02365357 12.68686367 19.38796026 14.60969948 20.75878906 16.53637695 C22.20669712 18.57892688 23.61451442 20.64386295 25.01269531 22.72070312 C26.72852543 25.26691179 28.46500891 27.79529602 30.23144531 30.30664062 C30.96878906 31.37011719 31.70613281 32.43359375 32.46582031 33.52929688 C33.12066406 34.46386719 33.77550781 35.3984375 34.45019531 36.36132812 C34.86785156 37.13863281 35.28550781 37.9159375 35.71582031 38.71679688 C35.38582031 39.70679688 35.05582031 40.69679687 34.71582031 41.71679688 C33.00691051 39.30053613 31.29857334 36.88387514 29.59082031 34.46679688 C29.06254639 33.71914063 28.53427246 32.97148438 27.98999023 32.20117188 C24.92874327 27.86451678 21.8770323 23.52141894 18.83691406 19.16992188 C18.20221191 18.26145508 17.56750977 17.35298828 16.91357422 16.41699219 C15.6662636 14.63050482 14.41983029 12.84340456 13.17431641 11.05566406 C12.60664551 10.24258789 12.03897461 9.42951172 11.45410156 8.59179688 C10.94919189 7.86734375 10.44428223 7.14289062 9.92407227 6.39648438 C8.82202978 4.76930289 8.82202978 4.76930289 7.71582031 3.71679688 C0.78582031 3.38679688 -6.14417969 3.05679687 -13.28417969 2.71679688 C-13.28417969 33.07679687 -13.28417969 63.43679687 -13.28417969 94.71679688 C-6.02417969 94.71679688 1.23582031 94.71679688 8.71582031 94.71679688 C8.70421875 91.40777344 8.69261719 88.09875 8.68066406 84.68945312 C8.6728745 81.49910579 8.66679717 78.30875951 8.66088867 75.1184082 C8.65584715 72.89411956 8.64901409 70.66983425 8.64038086 68.44555664 C8.62830733 65.25601379 8.62259036 62.06651459 8.61816406 58.87695312 C8.61300278 57.87592056 8.60784149 56.874888 8.6025238 55.84352112 C8.60241051 54.46220253 8.60241051 54.46220253 8.60229492 53.05297852 C8.60007431 52.23801407 8.5978537 51.42304962 8.5955658 50.58338928 C8.71582031 48.71679688 8.71582031 48.71679688 9.71582031 47.71679688 C12.05175781 47.38085938 12.05175781 47.38085938 14.71582031 47.71679688 C16.56738281 49.49023438 16.56738281 49.49023438 18.34082031 52.09179688 C19.35789062 53.57873047 19.35789062 53.57873047 20.39550781 55.09570312 C24.57612584 61.54281073 28.53121617 68.13076397 32.48339844 74.71923828 C33.62138243 76.56372819 34.81396147 78.35085671 36.04394531 80.13476562 C37.71582031 82.71679688 37.71582031 82.71679688 37.71582031 84.71679688 C38.37582031 84.71679688 39.03582031 84.71679688 39.71582031 84.71679688 C39.98676514 83.98630127 40.25770996 83.25580566 40.53686523 82.50317383 C41.67554859 79.81197625 42.97182181 77.56901465 44.57910156 75.13476562 C45.13662109 74.28462891 45.69414063 73.43449219 46.26855469 72.55859375 C46.84927734 71.68267578 47.43 70.80675781 48.02832031 69.90429688 C49.1709126 68.16905762 50.31284823 66.43338579 51.45410156 64.69726562 C52.00275879 63.86372559 52.55141602 63.03018555 53.11669922 62.17138672 C55.36708063 58.71713714 57.54589527 55.22206041 59.71582031 51.71679688 C61.20082031 52.21179688 61.20082031 52.21179688 62.71582031 52.71679688 C60.56824051 56.09592352 58.41761816 59.47309331 56.2644043 62.84863281 C55.18091728 64.54850038 54.09970589 66.24981773 53.01855469 67.95117188 C48.73935496 74.65590878 44.34335906 81.24721037 39.71582031 87.71679688 C35.62113136 86.20825699 34.23458861 83.82481997 32.03613281 80.15039062 C31.35421875 79.02439453 30.67230469 77.89839844 29.96972656 76.73828125 C29.25964932 75.54388235 28.55001637 74.3492192 27.84082031 73.15429688 C22.21073882 63.73968083 22.21073882 63.73968083 16.39550781 54.43945312 C15.94675293 53.73699463 15.49799805 53.03453613 15.03564453 52.31079102 C13.70690712 50.41991682 13.70690712 50.41991682 10.71582031 49.71679688 C10.72026154 50.27611908 10.72470276 50.83544128 10.72927856 51.41171265 C10.7734318 57.21878512 10.80365325 63.02581012 10.82568359 68.83300781 C10.8357582 71.00197282 10.84941829 73.17092419 10.86669922 75.33984375 C10.89088354 78.45250813 10.90228864 81.56499339 10.91113281 84.67773438 C10.92145538 85.65173187 10.93177795 86.62572937 10.94241333 87.62924194 C10.94256439 88.53002472 10.94271545 89.4308075 10.94287109 90.35888672 C10.94731232 91.15386566 10.95175354 91.9488446 10.95632935 92.76791382 C10.71582031 94.71679687 10.71582031 94.71679687 8.71582031 96.71679688 C6.39331055 96.9597168 6.39331055 96.9597168 3.52441406 96.94726562 C2.49767578 96.94533203 1.4709375 96.94339844 0.41308594 96.94140625 C-0.66263672 96.92916016 -1.73835938 96.91691406 -2.84667969 96.90429688 C-3.92626953 96.90365234 -5.00585938 96.90300781 -6.11816406 96.90234375 C-14.14403371 96.85694285 -14.14403371 96.85694285 -15.28417969 95.71679688 C-15.38476212 92.80022058 -15.42033179 89.90728742 -15.41357422 86.99023438 C-15.41532654 86.07485901 -15.41707886 85.15948364 -15.41888428 84.21636963 C-15.42330429 81.17482639 -15.42036428 78.13334076 -15.41699219 75.09179688 C-15.41766518 72.98811838 -15.41863517 70.88443995 -15.41989136 68.78076172 C-15.42136853 64.36555239 -15.41921314 59.95036324 -15.41455078 55.53515625 C-15.40885349 49.86187127 -15.41213239 44.18863359 -15.41812325 38.51535034 C-15.42172833 34.16951132 -15.42059052 29.8236836 -15.41799545 25.47784424 C-15.41732604 23.38535558 -15.41815511 21.2928659 -15.42047501 19.20037842 C-15.42300066 16.28134422 -15.41916217 13.36238775 -15.41357422 10.44335938 C-15.41559845 9.56955627 -15.41762268 8.69575317 -15.41970825 7.79547119 C-15.38368995 -2.30637549 -8.70106856 0.0791246 0 0 Z " fill="#575050" transform="translate(25.2841796875,15.283203125)"/>
<path d="M0 0 C2.6640625 0.3359375 2.6640625 0.3359375 4.515625 2.109375 C5.10085937 2.96789062 5.68609375 3.82640625 6.2890625 4.7109375 C7.30613281 6.19787109 7.30613281 6.19787109 8.34375 7.71484375 C12.52436803 14.16195136 16.47945836 20.74990459 20.43164062 27.33837891 C21.56962462 29.18286881 22.76220365 30.96999734 23.9921875 32.75390625 C25.6640625 35.3359375 25.6640625 35.3359375 25.6640625 37.3359375 C26.3240625 37.3359375 26.9840625 37.3359375 27.6640625 37.3359375 C27.93500732 36.60544189 28.20595215 35.87494629 28.48510742 35.12231445 C29.62379077 32.43111688 30.920064 30.18815527 32.52734375 27.75390625 C33.36362305 26.47870117 33.36362305 26.47870117 34.21679688 25.17773438 C34.79751953 24.30181641 35.37824219 23.42589844 35.9765625 22.5234375 C37.11915479 20.78819825 38.26109042 19.05252642 39.40234375 17.31640625 C39.95100098 16.48286621 40.4996582 15.64932617 41.06494141 14.79052734 C43.31532282 11.33627777 45.49413745 7.84120103 47.6640625 4.3359375 C48.6540625 4.6659375 49.6440625 4.9959375 50.6640625 5.3359375 C48.5164827 8.71506415 46.36586035 12.09223393 44.21264648 15.46777344 C43.12915947 17.167641 42.04794808 18.86895836 40.96679688 20.5703125 C36.68759714 27.2750494 32.29160125 33.866351 27.6640625 40.3359375 C23.56937355 38.82739761 22.1828308 36.4439606 19.984375 32.76953125 C19.30246094 31.64353516 18.62054688 30.51753906 17.91796875 29.35742188 C17.2078915 28.16302298 16.49825856 26.96835983 15.7890625 25.7734375 C10.15898101 16.35882146 10.15898101 16.35882146 4.34375 7.05859375 C3.89499512 6.35613525 3.44624023 5.65367676 2.98388672 4.92993164 C1.65514931 3.03905744 1.65514931 3.03905744 -1.3359375 2.3359375 C-1.3359375 17.1859375 -1.3359375 32.0359375 -1.3359375 47.3359375 C-1.6659375 47.3359375 -1.9959375 47.3359375 -2.3359375 47.3359375 C-2.50377002 40.80330449 -2.66373226 34.27051345 -2.81811523 27.73754883 C-2.87162142 25.51322014 -2.92695713 23.2889347 -2.98413086 21.06469727 C-3.0658021 17.87525768 -3.14098138 14.68572251 -3.21484375 11.49609375 C-3.25539635 9.99454491 -3.25539635 9.99454491 -3.29676819 8.46266174 C-3.31686447 7.54178268 -3.33696075 6.62090363 -3.35766602 5.67211914 C-3.37765152 4.85715469 -3.39763702 4.04219025 -3.41822815 3.20252991 C-3.29384515 0.38116001 -2.7894679 0.40116094 0 0 Z " fill="#696666" transform="translate(37.3359375,62.6640625)"/>
<path d="M0 0 C5.41380323 -0.4886931 5.41380323 -0.4886931 7.94921875 1.625 C8.80966797 2.800625 8.80966797 2.800625 9.6875 4 C10.36167969 4.91007812 11.03585938 5.82015625 11.73046875 6.7578125 C12.47941406 7.82773437 13.22835937 8.89765625 14 10 C14.43006348 10.61069336 14.86012695 11.22138672 15.30322266 11.85058594 C18.13539627 15.88273066 20.91246398 19.94950745 23.66601562 24.03564453 C24.93195057 25.89979398 26.21924765 27.74678263 27.515625 29.58984375 C28.25296875 30.65332031 28.9903125 31.71679688 29.75 32.8125 C30.40484375 33.74707031 31.0596875 34.68164062 31.734375 35.64453125 C32.15203125 36.42183594 32.5696875 37.19914062 33 38 C32.67 38.99 32.34 39.98 32 41 C30.81416122 39.32331952 29.62855096 37.64647712 28.44384766 35.96899414 C27.38550272 34.47206026 26.32523613 32.97648341 25.26318359 31.48217773 C22.21785209 27.18685721 19.2250859 22.86443239 16.296875 18.48828125 C15.68473145 17.58432617 15.07258789 16.68037109 14.44189453 15.74902344 C13.24785447 13.98347427 12.06610383 12.20953944 10.89794922 10.42675781 C7.57307968 5.50631146 7.57307968 5.50631146 2.5859375 2.43359375 C1.73257812 2.29050781 0.87921875 2.14742187 0 2 C0 1.34 0 0.68 0 0 Z " fill="#6A575C" transform="translate(28,16)"/>
<path d="M0 0 C4 4.75 4 4.75 4 7 C4.66 7 5.32 7 6 7 C6.33 6.34 6.66 5.68 7 5 C7.33 5.99 7.66 6.98 8 8 C6.02 8.99 6.02 8.99 4 10 C0.06153846 5.69230769 0.06153846 5.69230769 -0.25 2.1875 C-0.1675 1.465625 -0.085 0.74375 0 0 Z " fill="#6D6C6D" transform="translate(59,93)"/>
<path d="M0 0 C2.3125 -0.3125 2.3125 -0.3125 5 0 C6.8125 2.5 6.8125 2.5 8 5 C7.01 5.495 7.01 5.495 6 6 C5.34 5.01 4.68 4.02 4 3 C1.43717258 2.27034634 1.43717258 2.27034634 -1 2 C-0.67 1.34 -0.34 0.68 0 0 Z " fill="#67575C" transform="translate(35,63)"/>
<path d="M0 0 C1.65 0 3.3 0 5 0 C5 2.31 5 4.62 5 7 C2.65941363 4.87219421 1.29299694 2.88437779 0 0 Z " fill="#977FB5" transform="translate(42,66)"/>
<path d="M0 0 C3.53586014 3.17320782 5.58578031 5.16743695 6 10 C3.66475218 7.74259377 1.81294927 5.7194239 0 3 C0 2.01 0 1.02 0 0 Z " fill="#655258" transform="translate(55,47)"/>
</svg>
